<svg xmlns="http://www.w3.org/2000/svg" viewBox="0 0 120 120" width="100%" height="100%">
  <defs>
    <linearGradient id="fhFaviconBg" x1="0%" y1="0%" x2="100%" y2="100%">
      <stop offset="0%" stop-color="#0f172a" />
      <stop offset="100%" stop-color="#1e293b" />
    </linearGradient>
    <linearGradient id="fhFaviconScreen" x1="0%" y1="0%" x2="100%" y2="100%">
      <stop offset="0%" stop-color="#1e3a8a" />
      <stop offset="60%" stop-color="#0284c7" />
      <stop offset="100%" stop-color="#059669" />
    </linearGradient>
    <linearGradient id="fhFaviconShield" x1="0%" y1="0%" x2="100%" y2="100%">
      <stop offset="0%" stop-color="#10b981" />
      <stop offset="100%" stop-color="#047857" />
    </linearGradient>
  </defs>

  <rect x="6" y="6" width="108" height="108" rx="26" fill="url(#fhFaviconBg)" stroke="#334155" stroke-width="2" />
  <rect x="26" y="16" width="48" height="84" rx="10" fill="#0b1120" stroke="#475569" stroke-width="2.5" />
  <rect x="30" y="24" width="40" height="66" rx="5" fill="url(#fhFaviconScreen)" opacity="0.95" />
  <rect x="42" y="19" width="16" height="2.5" rx="1.25" fill="#64748b" />
  <rect x="43" y="84" width="14" height="2" rx="1" fill="#ffffff" opacity="0.6" />

  <!-- Diagonal Wrench Shaft -->
  <g transform="rotate(-35 60 55)">
    <rect x="53" y="38" width="8" height="36" rx="3.5" fill="#ffffff" />
    <rect x="55.5" y="44" width="3" height="22" rx="1.5" fill="#475569" opacity="0.5" />
  </g>

  <!-- Escrow Shield -->
  <g transform="translate(62, 58)">
    <path d="M 22 4 L 38 10 C 38 25 27 37 22 41 C 17 37 6 25 6 10 Z" fill="url(#fhFaviconShield)" stroke="#34d399" stroke-width="1.5" />
    <path d="M 18 19 L 18 16 C 18 13.8 19.8 12 22 12 C 24.2 12 26 13.8 26 16 L 26 19" fill="none" stroke="#ffffff" stroke-width="2.5" stroke-linecap="round" />
    <rect x="15" y="19" width="14" height="11" rx="2.5" fill="#ffffff" />
    <circle cx="22" cy="23.5" r="1.5" fill="#047857" />
  </g>
</svg>
